<svg xmlns="http://www.w3.org/2000/svg" viewBox="0 0 64 64"><g data-name="Layer 2"><circle cx="44" cy="56" r="5" fill="#2d2c2c"/><circle cx="17" cy="56" r="5" fill="#2d2c2c"/><path fill="#bf8a55" d="M51,6H29a1,1,0,0,0-1,1V24a1,1,0,0,0,1,1h2v2H48V25h3a1,1,0,0,0,1-1V7A1,1,0,0,0,51,6Z"/><path fill="#624326" d="M44,6H36a1,1,0,0,0-1,1V17a1,1,0,0,0,1.45.89L38,17.12l1.56.77a.94.94,0,0,0,.89,0L42,17.12l1.55.77A1,1,0,0,0,45,17V7A1,1,0,0,0,44,6Z"/><path fill="#aaa8a7" d="M13.26,7.65,8.32,3.26a1,1,0,0,0-1.41.09l-2.66,3A1,1,0,0,0,4,7.06a1,1,0,0,0,.34.69l4.93,4.39A11.1,11.1,0,0,1,13,20.44V45a1,1,0,0,0,1,1h4a1,1,0,0,0,1-1V20.44A17.12,17.12,0,0,0,13.26,7.65Z"/><rect width="24" height="21" x="25" y="25" fill="#d8a063" rx="1"/><rect width="50" height="6" x="8" y="44" fill="#4176ff" rx="1"/><path fill="#624326" d="M41,25H33a1,1,0,0,0-1,1V36a1,1,0,0,0,1.45.89L35,36.12l1.56.77a.94.94,0,0,0,.89,0L39,36.12l1.55.77A1,1,0,0,0,42,36V26A1,1,0,0,0,41,25Z"/></g><g data-name="Layer 3"><path d="M42.59 56A1.41 1.41 0 1 0 44 54.59 1.41 1.41 0 0 0 42.59 56zM15.59 56A1.41 1.41 0 1 0 17 54.59 1.41 1.41 0 0 0 15.59 56z"/><path d="M13.26,7.65,8.32,3.26a1,1,0,0,0-1.41.09l-2.66,3a1,1,0,0,0,.09,1.41l4.93,4.39A11.1,11.1,0,0,1,13,20.44V44H9a1,1,0,0,0-1,1v4a1,1,0,0,0,1,1h7v1.1a5,5,0,1,0,2,0V50H43v1.1a5,5,0,1,0,2,0V50H57a1,1,0,0,0,1-1V45a1,1,0,0,0-1-1H49V27h2a1,1,0,0,0,1-1V7a1,1,0,0,0-1-1H29a1,1,0,0,0-1,1V25H26a1,1,0,0,0-1,1V44H19V20.44A17.12,17.12,0,0,0,13.26,7.65ZM20,56a3,3,0,1,1-3-3A3,3,0,0,1,20,56Zm27,0a3,3,0,1,1-3-3A3,3,0,0,1,47,56ZM10.6,10.64,6.41,6.92l1.33-1.5,4.19,3.73A15.12,15.12,0,0,1,17,20.44V44H15V20.44A13.12,13.12,0,0,0,10.6,10.64ZM56,48H10V46H56ZM34,27h6v7.38l-.55-.27a1,1,0,0,0-.9,0L37,34.88l-1.55-.77a.94.94,0,0,0-.89,0l-.56.27ZM47,44H38V36.62l1-.5,1.55.77A1,1,0,0,0,42,36V27h5Zm3-19H41V17.62l1-.5,1.55.77A1,1,0,0,0,45,17V8h5ZM43,8v7.38l-.55-.27a1,1,0,0,0-.9,0L40,15.88l-1.55-.77a.94.94,0,0,0-.89,0l-.56.27V8ZM30,8h5v9a1,1,0,0,0,1.45.89L38,17.12l1,.5V25H30ZM27,27h5v9a1,1,0,0,0,1.45.89L35,36.12l1,.5V44H27Z"/></g></svg>