<svg xmlns="http://www.w3.org/2000/svg" width="32" height="32" viewBox="0 0 32 32"><g transform="translate(0 -1020.362)"><path fill="#7d9ec7" stroke="#105286" stroke-linecap="round" stroke-linejoin="round" d="m 6.49998,1024.8621 18.00005,0 c 0.55398,0 0.99997,0.446 0.99997,1 l 0,23.0001 c 0,0.554 -0.44599,1 -0.99997,1 l -18.00005,0 c -0.55399,0 -0.99998,-0.446 -0.99998,-1 l 0,-23.0001 c 0,-0.554 0.44599,-1 0.99998,-1 z"/><path fill="#fbfdfe" d="m 8.030824,1046.6166 12.183469,0 3.535708,-3.5325 0,-16.7945 c 0,-0.6523 -0.52563,-1.1775 -1.178542,-1.1775 l -14.142888,0 c -0.652912,0 -1.178543,0.5252 -1.178543,1.1775 l 0,19.0842 c 0,0.6523 0.136506,1.137 0.780796,1.2428 z"/><path fill="none" stroke="#105286" stroke-linecap="round" stroke-linejoin="round" d="m 7.250028,1043.2218 0,2.2078 c 0,0.6523 0.525631,1.1775 1.178543,1.1775 l 11.785722,0 3.535708,-3.5325 0,-16.785 c 0,-0.6523 -0.52563,-1.1775 -1.178542,-1.1775 l -14.142888,0 c -0.652912,0 -1.178543,0.5252 -1.178543,1.1775 l 0,7.8933 0,4.4155 0,2.6055"/><path fill="#105286" stroke="#105286" stroke-linecap="round" stroke-linejoin="round" d="m 20.214293,1046.6071 3.535708,-3.5325 -2.357265,0 c -1.178443,0 -1.178443,1.1641 -1.178443,1.1641 z"/><rect width="8" height="3.01" x="11.5" y="1023.862" fill="#2dbca4" stroke="#105286" stroke-linecap="round" stroke-linejoin="round" rx=".5" ry="0"/><rect width="8.081" height="1" x="14.419" y="1028.362" fill="#8fb6d7" rx="0" ry="0"/><rect width="8.081" height="1" x="14.419" y="-1031.362" fill="#8fb6d7" rx="0" ry="0" transform="scale(1 -1)"/><rect width="8.081" height="1" x="14.419" y="1032.362" fill="#8fb6d7" rx="0" ry="0"/><rect width="14" height="1" x="8.5" y="-1035.362" fill="#8fb6d7" rx="0" ry="0" transform="scale(1 -1)"/><rect width="14" height="1" x="8.5" y="1036.362" fill="#8fb6d7" rx="0" ry="0"/><rect width="14" height="1" x="8.5" y="-1039.362" fill="#8fb6d7" rx="0" ry="0" transform="scale(1 -1)"/><rect width="7" height="1" x="8.5" y="-1041.362" fill="#8fb6d7" rx="0" ry="0" transform="scale(1 -1)"/><rect width="5" height="5" x="8.419" y="1028.362" fill="#105286"/><path fill="#8fb6d7" fill-rule="evenodd" d="m 9.91929,1032.3622 0.75,-1.5 0.75,1.5"/><path fill="#406b95" fill-rule="evenodd" d="m 10.66929,1032.3622 1.125,-2.25 1.125,2.25"/><circle cx="9.919" cy="1029.862" r=".5" fill="#f8b84e"/></g></svg>