<svg xmlns="http://www.w3.org/2000/svg" enable-background="new 0 0 64 64" viewBox="0 0 64 64"><path fill="#b4cbea" fill-rule="evenodd" d="M21.46,39.576l0.006,0.001c1.462,0.296,2.605,1.439,2.901,2.901l0.001,0.006     c0.353,1.747-0.585,3.499-2.236,4.171l-8.175,3.332l3.332-8.175C17.962,40.161,19.713,39.222,21.46,39.576z" clip-rule="evenodd"/><path fill="#79a1d5" fill-rule="evenodd" d="M24.366,42.477c-0.148-0.732-0.509-1.385-1.016-1.89l-9.389,9.389l-0.004,0.01l8.175-3.332     c1.651-0.673,2.589-2.424,2.236-4.171L24.366,42.477z" clip-rule="evenodd"/><path fill="#f4f8f8" fill-rule="evenodd" d="M25.986,37.957c1.415,1.415,2.436,3.077,3.088,4.847c4.383-1.476,8.502-3.95,11.994-7.442     c5.961-5.961,8.98-13.746,9.071-21.558c-7.812,0.091-15.597,3.11-21.558,9.071c-3.492,3.492-5.966,7.612-7.442,11.994     C22.909,35.522,24.571,36.542,25.986,37.957z" clip-rule="evenodd"/><path fill="#dbe7f6" fill-rule="evenodd" d="M25.983,37.954c0.001,0.001,0.002,0.002,0.003,0.003c1.415,1.415,2.436,3.077,3.088,4.847     c4.383-1.476,8.502-3.95,11.994-7.442c5.961-5.961,8.98-13.746,9.071-21.558c-0.002,0-0.004,0-0.006,0L25.983,37.954z" clip-rule="evenodd"/><path fill="#dbe7f6" fill-rule="evenodd" d="M25.932 38.014c-.888-.888-1.876-1.61-2.919-2.197l-.968 1.743c.884.5 1.72 1.116 2.473 1.869.753.753 1.368 1.589 1.869 2.473l1.733-.963C27.535 39.893 26.82 38.902 25.932 38.014zM22.286 40.092l.003.001c.787.159 1.402.774 1.561 1.561l.001.003c.19.94-.315 1.883-1.204 2.246l-4.401 1.794 1.794-4.401C20.403 40.407 21.346 39.902 22.286 40.092z" clip-rule="evenodd"/><path fill="#b4cbea" fill-rule="evenodd" d="M48.438,23.587c1.092-3.165,1.663-6.471,1.701-9.783c-3.312,0.038-6.618,0.609-9.783,1.701L48.438,23.587z" clip-rule="evenodd"/><circle cx="37.747" cy="26.196" r="3.5" fill="#b4cbea" fill-rule="evenodd" clip-rule="evenodd" transform="rotate(-45.001 37.747 26.197)"/><path fill="#b4cbea" fill-rule="evenodd" d="M23.851 41.654c-.08-.395-.275-.746-.549-1.019l-5.051 5.051-.004.01 4.401-1.794c.889-.362 1.394-1.305 1.204-2.245L23.851 41.654zM25.927 38.01l-1.414 1.414c.001.001.003.002.004.004.753.753 1.368 1.589 1.869 2.473l1.733-.963c-.585-1.045-1.299-2.035-2.188-2.924C25.93 38.012 25.929 38.011 25.927 38.01z" clip-rule="evenodd"/><path fill="#79a1d5" fill-rule="evenodd" d="M40.218 23.719l-4.949 4.949c.001.001.002.002.003.003 1.367 1.367 3.583 1.367 4.95 0 1.367-1.367 1.367-3.583 0-4.95C40.221 23.72 40.219 23.72 40.218 23.719zM44.394 19.543l4.044 4.044c1.092-3.165 1.663-6.471 1.701-9.783-.002 0-.004 0-.006 0L44.394 19.543z" clip-rule="evenodd"/><path fill="#b4cbea" fill-rule="evenodd" d="M26.137,25.628c-3.327,0-6.654,1.269-9.193,3.808c-1.443,1.443-2.461,3.144-3.083,4.951      c2.402-1.201,5.166-1.421,7.702-0.667C22.653,30.859,24.17,28.126,26.137,25.628z" clip-rule="evenodd"/><path fill="#79a1d5" fill-rule="evenodd" d="M38.429,37.92c0,3.327-1.269,6.654-3.808,9.193c-1.443,1.443-3.144,2.461-4.951,3.083      c1.201-2.402,1.421-5.166,0.667-7.702C33.197,41.404,35.931,39.887,38.429,37.92z" clip-rule="evenodd"/><path fill="#437abe" d="M26.387,42.4c-0.174,0-0.344-0.091-0.436-0.253c-0.502-0.886-1.103-1.682-1.787-2.366     s-1.48-1.285-2.366-1.787c-0.239-0.135-0.324-0.438-0.19-0.678l0.968-1.743c0.064-0.117,0.173-0.202,0.301-0.238     c0.127-0.037,0.265-0.021,0.381,0.045c1.135,0.639,2.153,1.406,3.026,2.279c0.864,0.864,1.628,1.884,2.271,3.033     c0.064,0.116,0.081,0.253,0.044,0.381s-0.122,0.236-0.238,0.3l-1.733,0.963C26.552,42.38,26.469,42.4,26.387,42.4z      M22.718,37.377c0.794,0.492,1.517,1.062,2.153,1.697s1.205,1.358,1.697,2.153l0.862-0.479c-0.542-0.892-1.164-1.692-1.853-2.381     c-0.696-0.696-1.494-1.321-2.376-1.86L22.718,37.377z"/><path fill="#437abe" d="M29.074,43.304c-0.204,0-0.395-0.125-0.469-0.327c-0.655-1.779-1.655-3.349-2.972-4.666l0,0     c-1.316-1.316-2.886-2.317-4.666-2.973c-0.254-0.094-0.387-0.372-0.301-0.629c1.558-4.627,4.103-8.729,7.562-12.188     c5.848-5.848,13.628-9.122,21.906-9.218c0.116-0.005,0.264,0.051,0.359,0.146c0.095,0.095,0.148,0.225,0.146,0.359     c-0.096,8.279-3.37,16.058-9.217,21.906c-3.46,3.46-7.561,6.005-12.188,7.563C29.181,43.296,29.126,43.304,29.074,43.304z      M26.339,37.604c1.306,1.306,2.323,2.842,3.026,4.57c4.295-1.52,8.112-3.929,11.349-7.166c5.54-5.54,8.694-12.872,8.914-20.694     c-7.822,0.22-15.153,3.374-20.694,8.915c-3.236,3.237-5.646,7.053-7.166,11.349C23.499,35.282,25.034,36.298,26.339,37.604     L26.339,37.604L26.339,37.604L26.339,37.604z"/><path fill="#437abe" d="M48.477 23.991c-.128 0-.256-.049-.354-.146l-8.024-8.024c-.195-.195-.195-.512 0-.707s.512-.195.707 0l8.024 8.024c.195.195.195.512 0 .707C48.732 23.942 48.604 23.991 48.477 23.991zM13.861 34.886c-.119 0-.236-.042-.33-.124-.153-.134-.209-.347-.143-.539.676-1.962 1.753-3.692 3.202-5.142 2.55-2.55 5.94-3.954 9.546-3.954.191 0 .366.109.45.282s.062.377-.057.527c-1.885 2.394-3.399 5.072-4.5 7.961-.094.245-.36.373-.61.301-2.453-.73-5.058-.503-7.335.635C14.014 34.869 13.937 34.886 13.861 34.886zM25.097 26.17c-2.947.241-5.686 1.504-7.8 3.619-1.063 1.063-1.911 2.292-2.528 3.661 2.073-.762 4.326-.88 6.491-.332C22.249 30.631 23.536 28.3 25.097 26.17zM29.67 50.696c-.142 0-.279-.06-.376-.17-.134-.153-.162-.372-.071-.553 1.139-2.277 1.364-4.882.635-7.336-.074-.251.057-.517.301-.61 2.89-1.102 5.568-2.616 7.96-4.5.151-.119.355-.141.528-.057s.282.258.282.45c0 3.606-1.404 6.997-3.954 9.546-1.448 1.448-3.178 2.525-5.142 3.203C29.78 50.688 29.725 50.696 29.67 50.696zM30.939 42.796c.548 2.165.43 4.417-.332 6.491 1.371-.618 2.598-1.465 3.661-2.528 2.114-2.114 3.377-4.853 3.619-7.799C35.757 40.52 33.426 41.808 30.939 42.796zM37.747 30.195c-1.024 0-2.048-.39-2.828-1.17-1.56-1.56-1.56-4.097 0-5.657 1.51-1.511 4.146-1.512 5.657 0 1.56 1.56 1.56 4.097 0 5.657C39.795 29.805 38.771 30.195 37.747 30.195zM37.747 23.196c-.802 0-1.555.312-2.122.879-1.169 1.17-1.169 3.073 0 4.243 1.169 1.169 3.072 1.169 4.243 0 1.169-1.17 1.169-3.073 0-4.243C39.301 23.508 38.548 23.196 37.747 23.196zM13.957 50.487c-.13 0-.258-.051-.354-.146-.142-.142-.186-.356-.109-.542l3.332-8.175c.763-1.871 2.754-2.935 4.733-2.538.007.001.015.003.022.005l.006.001c1.641.331 2.933 1.623 3.27 3.286.402 1.986-.666 3.977-2.537 4.739l-8.174 3.333C14.084 50.475 14.02 50.487 13.957 50.487zM20.724 40.002c-1.283 0-2.473.773-2.973 1.999l-2.883 7.075 7.074-2.884c1.427-.581 2.24-2.099 1.935-3.609-.257-1.274-1.243-2.259-2.51-2.515l-.006-.001C21.148 40.022 20.935 40.002 20.724 40.002z"/><path fill="#437abe" d="M18.247,46.196c-0.13,0-0.258-0.051-0.354-0.146c-0.142-0.142-0.186-0.356-0.109-0.542l1.794-4.401     c0.452-1.109,1.636-1.74,2.807-1.505v0.001c1.002,0.212,1.757,0.974,1.956,1.952c0.237,1.178-0.396,2.359-1.504,2.811     l-4.401,1.794C18.375,46.184,18.311,46.196,18.247,46.196z M21.89,40.552c-0.598,0-1.153,0.36-1.386,0.932l-1.345,3.301     l3.3-1.345c0.665-0.271,1.045-0.979,0.902-1.684c-0.12-0.594-0.58-1.054-1.171-1.173l-0.003,0     C22.087,40.562,21.988,40.552,21.89,40.552z"/></svg>