<svg xmlns="http://www.w3.org/2000/svg" data-name="Layer 1" viewBox="0 0 512 512"><circle cx="220.81" cy="37.65" r="7.5"/><rect width="356" height="437" x="42.81" y="67.5" fill="#f9a242" rx="30"/><path fill="#f69531" d="M398.8,97.5v377a30,30,0,0,1-30,30h-30a30,30,0,0,0,30-30V97.5a30,30,0,0,0-30-30h30A30,30,0,0,1,398.8,97.5Z"/><rect width="265" height="347" x="88.3" y="112.5" fill="#fff" rx="4"/><polygon fill="#f69531" points="368.8 280.77 368.8 343.2 353.3 371.48 353.3 309.06 368.8 280.77"/><polygon fill="#e1e1e3" points="353.3 309.06 353.3 371.48 343.84 388.75 317.53 374.33 353.3 309.06"/><path fill="#787681" d="M260.07,57.68a40.46,40.46,0,1,0-78.53,0H163.8a19.66,19.66,0,0,0-19.66,19.65v28.83a19.66,19.66,0,0,0,19.66,19.66h114a19.66,19.66,0,0,0,19.66-19.66V77.33a19.66,19.66,0,0,0-19.66-19.65Z"/><path fill="#57565c" d="M277.81,57.68H260.07a40.46,40.46,0,0,0-54.27-47.3,40.45,40.45,0,0,1,24.27,47.3h17.74a19.66,19.66,0,0,1,19.66,19.65v28.83a19.66,19.66,0,0,1-19.66,19.66h30a19.66,19.66,0,0,0,19.66-19.66V77.33A19.66,19.66,0,0,0,277.81,57.68Z"/><circle cx="220.81" cy="37.65" r="7.5" fill="#fff"/><circle cx="133.31" cy="166" r="15" fill="#227fc0"/><path fill="#2370b5" d="M133.3,151a15,15,0,0,0-4.8.8,15,15,0,0,1,0,28.4,15,15,0,1,0,4.8-29.2Z"/><circle cx="133.31" cy="226" r="15" fill="#227fc0"/><path fill="#2370b5" d="M133.3,211a15,15,0,0,0-4.8.8,15,15,0,0,1,0,28.4,15,15,0,1,0,4.8-29.2Z"/><circle cx="133.31" cy="286" r="15" fill="#227fc0"/><path fill="#2370b5" d="M133.3,271a15,15,0,0,0-4.8.8,15,15,0,0,1,0,28.4,15,15,0,1,0,4.8-29.2Z"/><circle cx="133.31" cy="346" r="15" fill="#227fc0"/><path fill="#2370b5" d="M133.3,331a15,15,0,0,0-4.8.8,15,15,0,0,1,0,28.4,15,15,0,1,0,4.8-29.2Z"/><circle cx="133.31" cy="406" r="15" fill="#227fc0"/><path fill="#2370b5" d="M133.3,391a15,15,0,0,0-4.8.8,15,15,0,0,1,0,28.4,15,15,0,1,0,4.8-29.2Z"/><path fill="#787681" d="M308.31 173.5h-115a7.5 7.5 0 0 1 0-15h115a7.5 7.5 0 0 1 0 15zM308.31 233.5h-115a7.5 7.5 0 0 1 0-15h115a7.5 7.5 0 0 1 0 15zM308.31 293.5h-115a7.5 7.5 0 0 1 0-15h115a7.5 7.5 0 0 1 0 15zM293.31 353.5h-100a7.5 7.5 0 1 1 0-15h100a7.5 7.5 0 0 1 0 15zM308.31 413.5h-115a7.5 7.5 0 1 1 0-15h115a7.5 7.5 0 0 1 0 15z"/><polygon fill="#e1e1e3" points="343.84 388.75 309.06 421 317.53 374.33 343.84 388.75"/><polygon fill="#f69531" points="398.8 226.03 398.8 288.45 368.8 343.2 368.8 280.77 398.8 226.03"/><path fill="#787681" d="M469.19,141.17a14.88,14.88,0,0,1-1.85,7.2l-8.17,14.91-26.3-14.42L441,134a15,15,0,0,1,28.15,7.22Z"/><polygon fill="#787681" points="343.84 373.75 309.06 406 317.53 359.33 343.84 373.75"/><polygon fill="#e4222e" points="459.17 163.28 343.84 373.75 317.53 359.33 432.87 148.86 459.17 163.28"/></svg>